<?xml version="1.0" encoding="UTF-8"?>
<svg width="190px" height="190px" viewBox="0 0 190 190" version="1.1" xmlns="http://www.w3.org/2000/svg" xmlns:xlink="http://www.w3.org/1999/xlink">
    <!-- Generator: Sketch 51.3 (57544) - http://www.bohemiancoding.com/sketch -->
    <title>Nike</title>
    <desc>Created with Sketch.</desc>
    <defs>
        <polygon id="path-1" points="0 0 102.556818 0 102.556818 35.625 0 35.625"></polygon>
    </defs>
    <g id="Page-1" stroke="none" stroke-width="1" fill="none" fill-rule="evenodd">
        <g id="D_Brands-Notes" transform="translate(-31.000000, -187.000000)">
            <g id="Nike" transform="translate(31.000000, 187.000000)">
                <rect id="Rectangle-13-Copy-12" fill="#F0F0F0" x="0" y="0" width="190" height="190"></rect>
                <g id="nike_K-Copy-3" transform="translate(44.261364, 77.727273)">
                    <mask id="mask-2" fill="white">
                        <use xlink:href="#path-1"></use>
                    </mask>
                    <g id="Clip-2"></g>
                    <path d="M102.556818,0.519939966 C76.7056921,12.0079331 49.4159022,22.9491852 23.1581022,33.6438679 C19.5231804,34.8327616 15.4837712,35.625 11.4443619,35.625 C7.00155829,35.2294168 2.15426717,33.2493568 0.539596675,28.4948542 C-2.28962963,17.4024443 6.59707076,8.29331046 13.4635199,0.767581475 C12.6556381,3.93653516 11.0409676,7.10548885 11.0409676,10.6700257 C11.0409676,14.2345626 13.3684107,18.9708405 17.5029292,19.7802316 C21.5423384,20.573542 25.5828409,20.1768868 29.6222502,18.9879931 C53.4564047,13.046741 78.5226063,6.33790738 102.355668,0 L102.556818,0.519939966" id="Fill-1" fill="#333F48" mask="url(#mask-2)"></path>
                </g>
            </g>
        </g>
    </g>
</svg>