<svg xmlns="http://www.w3.org/2000/svg" xmlns:xlink="http://www.w3.org/1999/xlink" width="480" zoomAndPan="magnify" viewBox="0 0 360 359.999987" height="480" preserveAspectRatio="xMidYMid meet" version="1.0"><defs><clipPath id="999a28d8f0"><path d="M 66 16.136719 L 281 16.136719 L 281 343 L 66 343 Z M 66 16.136719 " clip-rule="nonzero"/></clipPath></defs><g clip-path="url(#999a28d8f0)"><path fill="#ffffff" d="M 176.84375 342.699219 C 176.84375 342.699219 74.726562 343.820312 66.863281 254.558594 C 63.019531 190.863281 99.992188 173.890625 97.941406 112.773438 C 97.882812 111.03125 99.878906 110.003906 101.269531 111.058594 C 107.726562 115.941406 121.296875 128.011719 126.898438 146.644531 C 127.523438 148.722656 130.515625 148.554688 130.921875 146.421875 C 136.320312 117.867188 157.699219 46.59375 238.722656 16.78125 C 240.546875 16.109375 242.207031 18.113281 241.21875 19.789062 C 232.554688 34.457031 209.363281 78.3125 224.617188 104.664062 C 235.617188 123.660156 240.480469 136.523438 242.621094 143.839844 C 243.195312 145.8125 245.972656 145.835938 246.589844 143.878906 L 250.96875 129.976562 C 251.628906 127.875 254.675781 128.109375 255 130.289062 C 260.976562 170.183594 282.777344 206.121094 280.742188 247.820312 C 279.523438 272.847656 271.855469 298.386719 253.535156 316.285156 C 233.285156 336.066406 204.328125 342.460938 176.84375 342.699219 Z M 176.84375 342.699219 " fill-opacity="1" fill-rule="nonzero"/></g><path fill="#ff3131" d="M 149.894531 219.890625 C 151.449219 221.117188 153.664062 219.699219 153.203125 217.777344 C 142.789062 174.304688 169.585938 143.363281 181.011719 132.503906 C 182.453125 131.132812 184.824219 132.378906 184.492188 134.339844 C 180.855469 155.664062 190.195312 175.6875 206.089844 190.554688 C 219.039062 202.667969 218.9375 217.265625 218.035156 223.949219 C 217.8125 225.597656 219.53125 226.796875 221.027344 226.066406 C 230.613281 221.394531 237.214844 212.71875 240.398438 207.757812 C 241.335938 206.300781 243.53125 206.574219 244.105469 208.210938 C 257.136719 245.449219 262.914062 311.742188 179.054688 311.484375 C 91.613281 311.214844 105.601562 247.820312 111.214844 230.976562 C 115.085938 219.359375 110.945312 210.945312 108.003906 206.84375 C 107.035156 205.496094 107.929688 203.636719 109.585938 203.539062 C 125.578125 202.609375 141.875 213.546875 149.894531 219.890625 Z M 149.894531 219.890625 " fill-opacity="1" fill-rule="nonzero"/></svg>